PathFileType  4	(X/Y/Z) C:\Users\antoi\Documents\MyRepositories\mobilecap\ResultsAnalysis
DataRate	CameraRate	NumFrames	NumMarkers	Units	OrigDataRate	OrigDataStartFrame	OrigNumFrames
100.0	100.0	6	51	mm	100.0	103	136
Frame#	Time	r_knee			r_shank_antsup			r_ankle			r_calc			r_5meta			r_toe			L_knee			L_shank_antsup			L_ankle			L_calc			L_5meta			L_toe			r_sh2			r_sh3			r_sh4			L_sh2			L_sh3			r_thigh1			r_thigh2			r_thigh3			r_thigh4			r_thigh5			L_thigh1			L_thigh2			L_thigh3			L_thigh4			r.ASIS			r.PSIS			L.ASIS			L.PSIS			C7			R_Shoulder			L_Shoulder			R_Sternum			L_Sternum			R_humerus			R_elbow_med			R_elbow_lat			R_forearm			R_wrist_radius			R_wrist_ulna			L_humerus			L_elbow_med			L_elbow_lat			L_forearm			L_wrist_radius			L_wrist_ulna			R_HJC			L_HJC			R_HJC_reg			L_HJC_reg			
		X1	Y1	Z1	X2	Y2	Z2	X3	Y3	Z3	X4	Y4	Z4	X5	Y5	Z5	X6	Y6	Z6	X7	Y7	Z7	X8	Y8	Z8	X9	Y9	Z9	X10	Y10	Z10	X11	Y11	Z11	X12	Y12	Z12	X13	Y13	Z13	X14	Y14	Z14	X15	Y15	Z15	X16	Y16	Z16	X17	Y17	Z17	X18	Y18	Z18	X19	Y19	Z19	X20	Y20	Z20	X21	Y21	Z21	X22	Y22	Z22	X23	Y23	Z23	X24	Y24	Z24	X25	Y25	Z25	X26	Y26	Z26	X27	Y27	Z27	X28	Y28	Z28	X29	Y29	Z29	X30	Y30	Z30	X31	Y31	Z31	X32	Y32	Z32	X33	Y33	Z33	X34	Y34	Z34	X35	Y35	Z35	X36	Y36	Z36	X37	Y37	Z37	X38	Y38	Z38	X39	Y39	Z39	X40	Y40	Z40	X41	Y41	Z41	X42	Y42	Z42	X43	Y43	Z43	X44	Y44	Z44	X45	Y45	Z45	X46	Y46	Z46	X47	Y47	Z47	X48	Y48	Z48	X49	Y49	Z49	X50	Y50	Z50	X51	Y51	Z51	

103	1.02000000	1206.39053	500.71573	-103.57014	1258.31607	451.13166	-107.96282	1273.12610	113.11169	-113.99879	1224.75974	71.89717	-156.18383	1392.73668	91.50763	-102.30056	1422.34986	130.28810	-155.03389	937.83176	470.75998	-355.48739	955.48238	382.51709	-333.61593	829.70880	100.75587	-322.27167	765.06122	69.70053	-287.40207	929.40958	42.89536	-345.38088	974.93559	53.13064	-285.33520	1267.97748	339.52769	-97.98199	1188.81205	446.78824	-74.60578	1189.05782	330.04467	-71.11269	885.64081	411.13259	-383.91084	853.17577	293.22153	-385.76189	1142.70799	743.93618	-66.85696	1193.35422	643.48397	-81.98275	1145.05965	593.47858	-75.58873	1040.72607	692.34661	-69.58951	1093.27260	593.36213	-94.49725	1046.04591	727.17926	-423.45042	1020.07188	596.18924	-383.67540	935.62367	740.99028	-432.90102	906.30811	621.31466	-374.04019	1116.56213	927.59140	-143.17313	903.96858	948.43917	-209.82355	1111.42806	915.63003	-363.81945	906.21180	949.13826	-290.22742	1012.88843	1394.70529	-255.45445	1043.42879	1362.84264	-108.51276	1064.41074	1362.32317	-386.48454	1130.53246	1322.86325	-217.57118	1132.84582	1322.56219	-260.18350	1031.73233	1252.76934	-39.26718	907.63328	1070.85728	-64.86654	934.49690	1073.44603	-4.34024	979.94380	992.85282	20.71588	989.66827	845.69056	28.54617	960.09404	851.94814	51.86266	1082.67555	1267.57267	-461.89889	1050.89169	1040.33803	-474.83898	1084.77323	1071.23370	-526.32644	1176.28701	1012.36742	-517.80273	1261.02445	919.06546	-490.58307	1242.79106	902.08973	-522.55709	1036.08511	838.39650	-141.92082	1029.90512	831.31147	-349.21215	1044.32566	849.75214	-175.80176	1048.38760	851.02327	-321.60690	
104	1.03000000	1214.50765	495.60894	-103.79110	1267.96607	449.36452	-108.89581	1302.54372	112.54345	-113.53992	1256.83724	68.27415	-155.20407	1423.63369	97.77044	-103.29031	1450.21452	138.09003	-156.36248	942.24397	471.27820	-354.97463	959.33462	382.62789	-333.48657	830.36233	101.89923	-321.88648	765.60575	71.29058	-287.05851	929.53099	42.87699	-345.38711	975.37864	52.96020	-285.43162	1284.14385	338.50220	-98.34911	1199.14249	441.40535	-74.61789	1205.98171	324.82109	-70.73889	889.67903	412.13806	-383.49607	855.92696	294.54952	-385.48582	1154.43235	739.73270	-67.16853	1202.97136	638.27666	-82.68209	1154.02798	589.26085	-74.70921	1051.54473	689.89107	-67.93363	1101.93062	589.70876	-92.87775	1054.51934	725.90087	-423.44119	1026.47791	595.33158	-383.58937	943.85049	741.88178	-431.59405	913.39411	622.43964	-372.77350	1129.53058	925.33647	-142.78164	916.54252	946.03398	-207.88437	1122.87392	913.66010	-363.46147	918.08205	947.17344	-288.16571	1024.15035	1392.50225	-254.79609	1054.30585	1360.78240	-107.78731	1076.09977	1360.47914	-385.59251	1141.80675	1321.03332	-216.66019	1144.32123	1320.76249	-259.23595	1041.88212	1251.00832	-38.40224	916.91519	1069.60996	-64.56098	943.10883	1072.45255	-3.59519	987.76893	991.69148	22.37353	996.33178	844.41684	31.02599	966.37905	850.93380	54.08750	1095.05953	1266.07685	-461.23064	1063.98424	1038.74446	-475.31758	1098.20564	1070.05775	-526.60060	1190.33075	1012.23969	-516.69125	1275.93909	920.19894	-488.05023	1258.40170	903.00388	-520.26942	1049.14073	836.05840	-141.10782	1041.43184	829.34679	-348.35964	1057.36589	847.04204	-175.19662	1060.16281	849.11273	-321.06411	
105	1.04000000	1222.55461	490.64850	-103.81137	1277.20938	447.54290	-109.47775	1329.65321	112.62274	-113.39720	1286.46260	65.72297	-154.78659	1451.64777	103.88188	-104.29135	1475.42633	145.54287	-157.55599	947.22673	471.71404	-354.51985	963.59311	382.59212	-333.34776	831.12202	103.11692	-321.57920	766.19586	73.00794	-286.78267	929.67050	42.84129	-345.40204	975.72774	52.70098	-285.46422	1299.13243	337.59565	-98.52195	1209.03416	436.33738	-74.58300	1221.72137	320.15801	-70.54333	894.24268	413.13346	-383.06091	859.04254	295.93403	-385.25108	1166.00965	735.39883	-67.18005	1212.53682	633.00619	-83.03398	1162.95734	584.95561	-73.79164	1062.34536	687.27822	-66.43141	1110.67995	586.04149	-91.54341	1063.27879	724.57417	-423.42702	1033.29463	594.41378	-383.56018	952.46149	742.68815	-430.23384	920.93658	623.48476	-371.52811	1142.49900	922.89781	-142.38761	929.21493	943.52272	-205.81587	1134.44283	911.61425	-363.10861	930.08778	945.09269	-286.01404	1035.41411	1390.19673	-254.05599	1065.18251	1358.59593	-106.98000	1087.84688	1358.54378	-384.64295	1153.13009	1319.08413	-215.64818	1155.85627	1318.89127	-258.20055	1052.14910	1249.07361	-37.50949	926.44277	1068.08587	-64.10261	952.06028	1071.18321	-2.76823	996.01660	990.29474	24.04906	1003.59395	842.95540	33.47618	973.23702	849.67182	56.30579	1107.49930	1264.46960	-460.48268	1077.04487	1037.04064	-475.73123	1111.61046	1068.77494	-526.81793	1204.23745	1011.86653	-515.53696	1290.56182	920.97079	-485.47152	1273.67583	903.58125	-517.96501	1062.27762	833.54250	-140.29751	1053.02546	827.30875	-347.50005	1070.41277	844.23737	-174.62229	1072.00449	847.09215	-320.54204	
106	1.05000000	1230.70516	486.01169	-103.72272	1286.16439	445.61412	-109.69642	1354.02440	112.87722	-113.58101	1313.08793	63.87790	-155.01690	1476.41213	109.26291	-105.05662	1497.83828	152.10885	-158.31448	952.91299	472.00732	-354.12088	968.37326	382.39025	-333.18107	832.02388	104.42800	-321.37448	766.84846	74.87577	-286.59510	929.84571	42.78935	-345.43792	975.92209	52.28778	-285.43388	1312.88625	336.61471	-98.51542	1218.50958	431.59514	-74.56710	1236.12965	315.94883	-70.59844	899.43486	414.08148	-382.59308	862.59252	297.35534	-385.05837	1177.52482	731.11232	-66.86310	1222.20473	627.90244	-83.07508	1172.01508	580.73221	-72.99276	1073.20006	684.61132	-65.18735	1119.64573	582.53430	-90.61445	1072.35109	723.17990	-423.35111	1040.61669	593.42209	-383.53339	961.55155	743.32387	-428.81866	928.98601	624.35106	-370.31017	1155.46295	920.33021	-141.96354	941.95975	940.96940	-203.62142	1146.12793	909.51274	-362.74216	942.21139	942.94757	-283.76785	1046.70936	1387.84191	-253.22717	1076.06332	1356.31382	-106.08313	1099.66015	1356.55603	-383.63582	1164.53487	1317.06884	-214.53052	1167.47514	1316.98832	-257.07963	1062.51899	1246.99520	-36.56425	936.23236	1066.33003	-63.45417	961.37437	1069.65036	-1.86637	1004.70175	988.67436	25.73271	1011.46143	841.31635	35.89956	980.73171	848.19543	58.50017	1119.99377	1262.77908	-459.64584	1090.07197	1035.25693	-476.05573	1124.99658	1067.39861	-526.92244	1218.01016	1011.26000	-514.30784	1304.87212	921.36774	-482.87275	1288.60340	903.81890	-515.64268	1075.46693	830.91222	-139.46097	1064.66850	825.22749	-346.60311	1083.44064	841.39097	-174.04762	1083.90374	844.99156	-320.01728	
107	1.06000000	1239.12196	481.81841	-103.60031	1294.98240	443.48520	-109.56936	1375.23661	112.81835	-114.07041	1336.23157	62.32799	-155.93916	1497.59761	113.33071	-105.38528	1517.31891	157.23077	-158.40671	959.39898	472.11228	-353.74928	973.78193	382.01199	-332.96461	833.10139	105.86044	-321.28360	767.59385	76.93195	-286.50981	930.07657	42.72731	-345.50427	975.97851	51.70387	-285.37296	1325.40673	335.33168	-98.36985	1227.64618	427.15782	-74.63037	1249.11819	312.05548	-70.97632	905.34916	414.94996	-382.08690	866.65475	298.79659	-384.91008	1189.06245	727.05490	-66.23002	1232.11230	623.18065	-82.86878	1181.34855	576.76641	-72.41364	1084.17640	682.01338	-64.26183	1128.92568	579.33750	-90.12329	1081.76049	721.70137	-423.16593	1048.53128	592.35233	-383.45334	971.17219	743.71764	-427.34652	937.57936	624.94594	-369.10537	1168.44026	917.70694	-141.48564	954.76180	938.43629	-201.32374	1157.93076	907.38564	-362.34616	954.44060	940.78589	-281.43768	1058.07732	1385.49172	-252.30216	1086.96311	1353.97329	-105.08647	1111.54848	1354.56155	-382.56486	1176.06259	1315.05861	-213.30603	1179.20321	1315.09390	-255.87541	1072.98924	1244.81296	-35.54419	946.32243	1064.37862	-62.62534	971.07410	1067.88354	-0.90364	1013.83987	986.85800	27.40908	1019.92191	839.51307	38.29427	988.90119	846.54378	60.65400	1132.54160	1261.04454	-458.71076	1103.06095	1033.43450	-476.25565	1138.36579	1065.95353	-526.84902	1231.64142	1010.43982	-512.98084	1318.85011	921.38644	-480.28490	1303.16729	903.71883	-513.31358	1088.69906	828.24385	-138.57397	1076.36553	823.13585	-345.64428	1096.45030	838.56580	-173.43721	1095.86874	842.84711	-319.46338	
108	1.07000000	1247.94939	478.12097	-103.49730	1303.83867	441.05607	-109.14901	1392.93962	112.02963	-114.81837	1355.53666	60.67460	-157.52178	1514.97412	115.58175	-105.17185	1533.77056	160.40377	-157.73592	966.73779	472.00491	-353.36586	979.89560	381.45810	-332.68196	834.38763	107.44545	-321.30854	768.47114	79.23052	-286.53384	930.38113	42.66534	-345.60573	975.98240	50.98442	-285.33113	1336.75053	333.53003	-98.14509	1236.56790	423.00316	-74.82754	1260.67023	308.34991	-71.73004	912.05171	415.72267	-381.54499	871.30187	300.25202	-384.80664	1200.69729	723.38119	-65.33532	1242.36794	619.00618	-82.48946	1191.07591	573.20738	-72.07867	1095.33502	679.59795	-63.65572	1138.59065	576.54752	-90.01722	1091.53016	720.13017	-422.84012	1057.10693	591.20971	-383.27099	981.32768	743.83226	-425.82749	946.74072	625.20872	-367.88702	1181.45549	915.11010	-140.93914	967.61960	935.98213	-198.96767	1169.86726	905.26894	-361.90670	966.77498	938.64637	-279.05844	1069.55873	1383.19622	-251.27443	1097.90856	1351.61894	-103.98004	1123.52621	1352.60950	-381.41848	1187.75342	1313.12524	-211.97708	1191.06114	1313.24329	-254.58866	1083.57621	1242.57411	-34.43695	956.76587	1062.25680	-61.67145	981.17754	1065.92726	0.09826	1023.44520	984.88799	29.06073	1028.95607	837.56810	40.65176	997.74550	844.75732	62.75214	1145.14035	1259.31194	-457.66906	1116.00803	1031.61810	-476.28757	1151.71135	1064.47989	-526.53713	1245.11410	1009.43195	-511.54427	1332.48225	921.03342	-477.74070	1317.34780	903.28968	-510.99990	1101.97669	825.61837	-137.62198	1088.14594	821.06596	-344.61058	1109.45999	835.83710	-172.75615	1107.92137	840.69692	-318.85053	
